Coordinates
version=1
nRows=11
nColumns=36
inDegrees=yes

Units are S.I. units (second, meters, Newtons, ...)
If the header above contains a line with 'inDegrees', this indicates whether rotational values are in degrees (yes) or radians (no).

endheader
time	pelvis_tilt	pelvis_list	pelvis_rotation	pelvis_tx	pelvis_ty	pelvis_tz	hip_flexion_r	hip_adduction_r	hip_rotation_r	knee_angle_r	knee_angle_r_beta	ankle_angle_r	subtalar_angle_r	mtp_angle_r	hip_flexion_l	hip_adduction_l	hip_rotation_l	knee_angle_l	knee_angle_l_beta	ankle_angle_l	subtalar_angle_l	mtp_angle_l	lumbar_extension	lumbar_bending	lumbar_rotation	arm_flex_r	arm_add_r	arm_rot_r	elbow_flex_r	pro_sup_r	arm_flex_l	arm_add_l	arm_rot_l	elbow_flex_l	pro_sup_l
      7.51666670	     -2.52363944	      0.11435852	      2.88099797	      0.29386617	      1.02963571	     -0.08680339	     -2.54896162	     -5.07226236	      1.59134664	      1.21623946	      0.02122738	      4.91757329	     -6.37269424	     -7.49999987	      2.75967590	     -2.32244455	     12.07319807	      4.42977138	      0.07731410	      1.13560751	     -9.67175640	     -7.49999987	      1.54836063	     -1.11455587	      1.64765396	     72.94236840	    -16.22770578	      8.56379341	     45.92370340	     59.68566528	     79.25430748	    -10.41365945	     13.13160770	     33.95492086	     44.64420505
      7.53333330	     -2.45289753	      0.14190628	      2.97921588	      0.29379243	      1.02956048	     -0.08683036	     -2.64848889	     -5.08583790	      1.53600966	      1.19546120	      0.02086473	      4.71486546	     -6.50866371	     -7.49999987	      2.68337259	     -2.29407503	     12.28935353	      4.38232184	      0.07648595	      0.94630244	     -9.88992870	     -7.49999987	      1.44907293	     -1.13697685	      1.52165757	     72.32502686	    -16.49639470	      9.75795363	     45.97053499	     59.75009458	     78.53810105	    -10.23557884	     11.00309505	     33.65400269	     48.39756790
      7.55000000	     -2.36058815	      0.20146339	      3.08352533	      0.29365716	      1.02964277	     -0.08675390	     -2.76790424	     -5.12397960	      1.36942481	      1.17122558	      0.02044174	      4.68431937	     -6.40706738	     -7.49999987	      2.62715772	     -2.24261474	     12.32293244	      4.40361943	      0.07685766	      0.99050268	     -9.73685876	     -7.49999987	      1.37309167	     -1.13015990	      1.35981062	     71.65315848	    -16.44930662	     10.67260138	     45.91971577	     59.37358738	     78.16421473	    -10.75761166	     12.90960414	     33.11372545	     43.02170606
      7.56666670	     -2.31998623	      0.26551387	      3.17982809	      0.29362422	      1.02951939	     -0.08672019	     -2.83148489	     -5.16940007	      1.34393054	      1.13314664	      0.01977714	      4.57868988	     -6.60927910	     -7.49999987	      2.61142151	     -2.17005950	     12.48707506	      4.42951659	      0.07730965	      0.88271902	     -9.85882613	     -7.49999987	      1.33653552	     -1.20860646	      1.12688068	     70.92253653	    -16.76569059	     10.99444327	     46.10651013	     59.48954289	     77.40408974	    -10.83325761	     11.52638631	     33.25109787	     46.22398463
      7.58333330	     -2.34876815	      0.32916520	      3.28610190	      0.29357122	      1.02944026	     -0.08673128	     -2.79731519	     -5.22294156	      1.27724701	      1.08314964	      0.01890453	      4.54055065	     -6.55062161	     -7.49999987	      2.68433346	     -2.10804481	     12.57179057	      4.48607162	      0.07829672	      0.84082811	     -9.94811393	     -7.49999987	      1.35584653	     -1.21603466	      1.10021531	     70.22942307	    -17.10672733	     11.29941487	     46.41079973	     59.50921729	     76.60139254	    -10.82048816	     10.74795016	     33.59616326	     47.65196864
      7.60000000	     -2.32963680	      0.33554409	      3.37275784	      0.29359491	      1.02914276	     -0.08663380	     -2.83070855	     -5.22457733	      1.31684171	      1.03629090	      0.01808669	      4.41545417	     -6.49581121	     -7.49999987	      2.68011719	     -2.10837551	     12.58207100	      4.47156856	      0.07804359	      0.82347143	     -9.98223398	     -7.49999987	      1.32160348	     -1.13581576	      0.93369031	     69.38783721	    -17.20143484	     11.57523091	     46.73996002	     59.46843593	     75.54954755	    -11.03615811	      9.68375843	     33.83667138	     49.08747506
      7.61666670	     -2.35526604	      0.36172592	      3.49473237	      0.29363139	      1.02910555	     -0.08665558	     -2.82555909	     -5.24686938	      1.30729526	      1.00708774	      0.01757700	      4.49633698	     -6.27619242	     -7.49999987	      2.74506236	     -2.09735419	     12.59246774	      4.48086511	      0.07820585	      0.91183133	     -9.81123788	     -7.49999987	      1.32528256	     -1.09141271	      0.91289114	     68.68243976	    -17.16874744	     12.06885744	     46.56157992	     58.83954055	     74.73925016	    -11.50968845	     11.76519822	     33.67064105	     42.55797959
      7.63333330	     -2.35038090	      0.34597857	      3.58764645	      0.29369263	      1.02885196	     -0.08676215	     -2.85197224	     -5.22413030	      1.34210416	      0.99747178	      0.01740917	      4.57894301	     -6.17163435	     -7.49999987	      2.75080667	     -2.11792002	     12.67909586	      4.44551271	      0.07758883	      0.85263553	     -9.87719150	     -7.49999987	      1.29961134	     -1.05092133	      0.71714723	     68.32675309	    -17.00956171	     12.41169865	     46.24725457	     59.03476843	     73.98837383	    -11.58229060	     10.39220039	     33.60246520	     45.91145726
      7.65000000	     -2.34017438	      0.31343317	      3.70249167	      0.29368359	      1.02880260	     -0.08689893	     -2.86899257	     -5.16845371	      1.20287437	      1.03444440	      0.01805446	      4.70353585	     -5.86977651	     -7.49999987	      2.76526290	     -2.15088291	     12.70637171	      4.43796817	      0.07745716	      0.90644898	     -9.72322518	     -7.49999987	      1.18590537	     -1.02303869	      0.51760459	     67.91502655	    -16.82651741	     12.36681705	     45.70108920	     59.10910419	     73.71011662	    -11.57787323	      9.33732078	     33.13782870	     48.46295088
      7.66666670	     -2.23788111	      0.27799100	      3.69144046	      0.29371881	      1.02566096	     -0.08669470	     -2.98205948	     -5.12242732	      1.55695260	      1.06106188	      0.01851902	      4.74180465	     -6.20166698	     -7.49999987	      2.61567873	     -2.19847648	     12.61591829	      4.38107123	      0.07646412	      1.07704512	     -9.61187719	     -7.49999987	      1.02135455	     -1.02643008	      0.77205071	     67.68256762	    -17.31934186	     13.36157868	     45.16805515	     58.18672138	     73.62540408	    -11.72444332	     12.68376228	     32.50896567	     40.60978961
      7.68333330	     -2.11068305	      0.29381767	      3.75859635	      0.29760662	      1.02599830	     -0.09167816	     -3.16133649	     -5.20119830	      1.62293235	      1.18261207	      0.02064047	      4.73840439	     -6.20199984	     -7.49999987	      2.47485951	     -2.13218084	     12.59035694	      4.42092844	      0.07715976	      1.07649109	     -9.61702851	     -7.49999987	      0.92019997	     -1.01636262	      0.60321206	     67.48273706	    -17.76101529	     13.26345605	     45.01632296	     58.17470288	     72.73390968	    -11.66860547	     12.73025384	     32.30674502	     40.60107294
